<svg width="17" height="17" viewBox="0 0 17 17" fill="none" xmlns="http://www.w3.org/2000/svg"><g clip-path="url(#a)"><path d="m7.223 10.89.944.943L11.5 8.5 8.167 5.167l-.944.943 1.724 1.723H2.5v1.334h6.447L7.223 10.89Zm5.944-8.39H3.833c-.736 0-1.333.597-1.333 1.333V6.5h1.333V3.833h9.334v9.334H3.833V10.5H2.5v2.667c0 .736.597 1.333 1.333 1.333h9.334c.736 0 1.333-.597 1.333-1.333V3.833c0-.736-.597-1.333-1.333-1.333Z" fill="#7791C2"/></g><defs><clipPath id="a"><path fill="#fff" transform="translate(.5 .5)" d="M0 0h16v16H0z"/></clipPath></defs></svg>