<svg width="20" height="20" viewBox="0 0 20 20" fill="none" xmlns="http://www.w3.org/2000/svg">
<path d="M11.9163 15.5833L6.91634 10.5833C6.74967 10.4167 6.66634 10.25 6.66634 9.99999C6.66634 9.74999 6.74967 9.58332 6.91634 9.41666L11.9163 4.41666C12.2497 4.08332 12.7497 4.08332 13.083 4.41666C13.4163 4.74999 13.4163 5.24999 13.083 5.58332L8.66634 9.99999L13.083 14.4167C13.4163 14.75 13.4163 15.25 13.083 15.5833C12.7497 15.9167 12.2497 15.9167 11.9163 15.5833Z" fill="#000000"/>
<mask id="mask0_312_78" style="mask-type:luminance" maskUnits="userSpaceOnUse" x="6" y="4" width="8" height="12">
<path d="M11.9163 15.5833L6.91634 10.5833C6.74967 10.4167 6.66634 10.25 6.66634 9.99999C6.66634 9.74999 6.74967 9.58332 6.91634 9.41666L11.9163 4.41666C12.2497 4.08332 12.7497 4.08332 13.083 4.41666C13.4163 4.74999 13.4163 5.24999 13.083 5.58332L8.66634 9.99999L13.083 14.4167C13.4163 14.75 13.4163 15.25 13.083 15.5833C12.7497 15.9167 12.2497 15.9167 11.9163 15.5833Z" fill="white"/>
</mask>
</svg>
