<svg width="12" height="12" viewBox="0 0 12 12" fill="none" xmlns="http://www.w3.org/2000/svg">
<g clip-path="url(#clip0_803_11147)">
<path d="M10.4111 7.44283L10.354 7.46318L10.1311 7.99534L10.1553 8.05002C10.8306 9.58172 10.7841 9.62741 10.6721 9.73846L9.7712 10.6173C9.73436 10.6538 9.66969 10.6795 9.61394 10.6795C9.56325 10.6795 9.40973 10.6795 8.07922 10.0769L8.02587 10.053L7.47694 10.274L7.45491 10.3287C6.82923 11.8779 6.76514 11.8779 6.60944 11.8779H5.33721C5.1821 11.8779 5.11145 11.8779 4.53127 10.326L4.50943 10.2695L3.96335 10.0469L3.91114 10.0686C3.01057 10.4483 2.48474 10.6408 2.34767 10.6408C2.29205 10.6408 2.22715 10.6158 2.19015 10.5794L1.28845 9.69802C1.17406 9.58519 1.12662 9.53794 1.83735 8.0382L1.86347 7.98258L1.64018 7.45101L1.58554 7.42988C0 6.81715 0 6.75741 0 6.59782V5.35113C0 5.19111 0 5.12465 1.58868 4.55531L1.64547 4.53525L1.8688 4.00523L1.84482 3.95107C1.16945 2.41866 1.21229 2.37718 1.32726 2.26283L2.22676 1.3828C2.26447 1.34655 2.32973 1.32065 2.38538 1.32065C2.43574 1.32065 2.58891 1.32065 3.92029 1.92297L3.97361 1.94793L4.5229 1.72577L4.54425 1.67083C5.17032 0.122089 5.23464 0.122089 5.39043 0.122089H6.66305C6.82283 0.122089 6.8891 0.122089 7.46974 1.67508L7.49138 1.73161L8.03833 1.95273L8.09039 1.93151C8.99021 1.55076 9.51578 1.35862 9.65197 1.35862C9.70711 1.35862 9.77259 1.3828 9.8102 1.42005L10.7134 2.30333C10.827 2.41674 10.8743 2.46311 10.1623 3.96143L10.1358 4.01769L10.3587 4.54697L10.412 4.56783C12 5.18378 12 5.24381 12 5.4036V6.64954C12 6.80952 12 6.87559 10.4111 7.44283ZM5.99998 3.97811C4.86298 3.97811 3.93801 4.88539 3.93801 5.99978C3.93801 7.1142 4.86301 8.02029 5.99998 8.02029C7.1365 8.02029 8.06131 7.11401 8.06131 5.99978C8.06134 4.88559 7.13653 3.97811 5.99998 3.97811Z" fill="#7791C2"/>
</g>
<defs>
<clipPath id="clip0_803_11147">
<rect width="12" height="12" transform="matrix(1 0 0 -1 0 12)" fill="white"/>
</clipPath>
</defs>
</svg>
