<svg width="24" height="24" viewBox="0 0 24 24" fill="none" xmlns="http://www.w3.org/2000/svg">
<path fill-rule="evenodd" clip-rule="evenodd" d="M17 8H18C19.105 8 20 8.895 20 10V20C20 21.105 19.105 22 18 22H6C4.895 22 4 21.105 4 20V10C4 8.895 4.895 8 6 8H7H8.9H10H15.1V6C15.1 4.29 13.71 2.9 12 2.9C10.29 2.9 8.9 4.29 8.9 6H7C7 3.24 9.24 1 12 1C14.76 1 17 3.24 17 6V8ZM10 15C10 16.105 10.895 17 12 17C13.105 17 14 16.105 14 15C14 13.895 13.105 13 12 13C10.895 13 10 13.895 10 15Z" fill="#000000"/>
</svg>
