<svg width="20" height="20" viewBox="0 0 20 20" fill="none" xmlns="http://www.w3.org/2000/svg"><g clip-path="url(#a)"><path d="M16.192 10.813A6.62 6.62 0 0 0 16.25 10c0-.275-.025-.546-.058-.812l1.762-1.38a.416.416 0 0 0 .1-.533l-1.666-2.887a.412.412 0 0 0-.509-.18l-2.075.838a6.27 6.27 0 0 0-1.408-.82l-.313-2.21a.429.429 0 0 0-.416-.35H8.333a.42.42 0 0 0-.412.35l-.313 2.21a6.159 6.159 0 0 0-1.408.82l-2.075-.838a.417.417 0 0 0-.508.18L1.95 7.275a.417.417 0 0 0 .1.533l1.758 1.38A6.542 6.542 0 0 0 3.75 10c0 .275.025.546.058.813L2.05 12.192a.416.416 0 0 0-.1.533l1.667 2.888c.104.179.32.254.508.179l2.075-.838c.43.33.9.609 1.408.821l.313 2.208a.42.42 0 0 0 .412.35h3.334a.42.42 0 0 0 .412-.35l.313-2.208a6.159 6.159 0 0 0 1.408-.82l2.075.837c.188.07.404 0 .508-.18l1.667-2.887a.417.417 0 0 0-.1-.533l-1.758-1.38ZM10 12.917A2.914 2.914 0 0 1 7.083 10 2.915 2.915 0 0 1 10 7.083 2.915 2.915 0 0 1 12.917 10 2.915 2.915 0 0 1 10 12.917Z" fill="#000"/></g><defs><clipPath id="a"><path fill="#fff" d="M0 0h20v20H0z"/></clipPath></defs></svg>