<svg width="16" height="16" viewBox="0 0 16 16" fill="none" xmlns="http://www.w3.org/2000/svg"><g clip-path="url(#a)"><path d="M.667 14h2.667V6H.667v8Zm14.667-7.333c0-.737-.597-1.334-1.334-1.334H9.79l.637-3.046a.998.998 0 0 0-.27-.917l-.71-.703-4.39 4.39a1.34 1.34 0 0 0-.39.943v6.667C4.667 13.403 5.264 14 6 14h6a1.33 1.33 0 0 0 1.227-.813l2.01-4.7c.06-.154.097-.317.097-.487V6.723l-.007-.006.007-.05Z" fill="#000"/></g><defs><clipPath id="a"><path fill="#fff" d="M0 0h16v16H0z"/></clipPath></defs></svg>