<svg width="16" height="16" viewBox="0 0 16 16" fill="none" xmlns="http://www.w3.org/2000/svg"><g clip-path="url(#a)"><path d="M14.644 1.676a4.51 4.51 0 0 0-6.31.001L.98 9.03a3.445 3.445 0 0 0 4.871 4.872l6.658-6.659A2.216 2.216 0 1 0 9.376 4.11l-6.369 6.368a.579.579 0 0 0 .819.82l6.368-6.37a1.059 1.059 0 0 1 1.498 1.498l-6.658 6.658A2.287 2.287 0 0 1 1.799 9.85l7.353-7.353a3.354 3.354 0 0 1 4.745 4.743l-7.353 7.353a.579.579 0 1 0 .816.816l7.353-7.353a4.51 4.51 0 0 0-.07-6.379Z" fill="#000"/></g><defs><clipPath id="a"><path fill="#fff" d="M0 0h16v16H0z"/></clipPath></defs></svg>