<svg width="16" height="16" viewBox="0 0 16 16" fill="none" xmlns="http://www.w3.org/2000/svg"><g clip-path="url(#a)" fill="#000"><path d="m14.355 3.145-3-3A.5.5 0 0 0 11 0H3a1.5 1.5 0 0 0-1.5 1.5v13A1.5 1.5 0 0 0 3 16h10a1.5 1.5 0 0 0 1.5-1.5v-11a.5.5 0 0 0-.145-.355ZM13.5 14.5a.5.5 0 0 1-.5.5H3a.5.5 0 0 1-.5-.5v-13A.5.5 0 0 1 3 1h7.5v2a1 1 0 0 0 1 1h2v10.5Z"/><path d="M12.5 12h-1v1h1v-1Zm0-5h-9v1h9V7Zm0 2.5h-9v1h9v-1Zm-2 2.5h-7v1h7v-1Z"/></g><defs><clipPath id="a"><path fill="#fff" d="M0 0h16v16H0z"/></clipPath></defs></svg>