<svg width="12" height="12" viewBox="0 0 12 12" fill="none" xmlns="http://www.w3.org/2000/svg"><g clip-path="url(#a)"><path d="m10.411 7.443-.057.02-.223.532.024.055c.676 1.532.63 1.577.517 1.688l-.9.88a.24.24 0 0 1-.158.062c-.05 0-.204 0-1.535-.603l-.053-.024-.55.221-.021.055c-.626 1.549-.69 1.549-.846 1.549H5.337c-.155 0-.226 0-.806-1.552l-.022-.056-.546-.223-.052.022c-.9.38-1.426.572-1.563.572a.242.242 0 0 1-.158-.062l-.902-.881c-.114-.113-.161-.16.55-1.66l.025-.055-.223-.532-.054-.021C0 6.817 0 6.757 0 6.598V5.35c0-.16 0-.226 1.589-.796l.056-.02.224-.53-.024-.054c-.676-1.532-.633-1.574-.518-1.688l.9-.88a.248.248 0 0 1 .158-.062c.05 0 .204 0 1.535.602l.054.025.549-.222.021-.055C5.17.122 5.234.122 5.39.122h1.273c.16 0 .226 0 .807 1.553l.021.057.547.22.052-.02c.9-.381 1.426-.573 1.562-.573.055 0 .12.024.158.061l.903.883c.114.114.161.16-.55 1.658l-.027.057.223.529.053.02C12 5.185 12 5.245 12 5.405V6.65c0 .16 0 .226-1.589.793ZM6 3.978c-1.137 0-2.062.907-2.062 2.022 0 1.114.925 2.02 2.062 2.02 1.136 0 2.061-.906 2.061-2.02 0-1.114-.924-2.022-2.061-2.022Z" fill="#7791C2"/></g><defs><clipPath id="a"><path transform="matrix(1 0 0 -1 0 12)" fill="#fff" d="M0 0h12v12H0z"/></clipPath></defs></svg>