<svg width="17" height="17" viewBox="0 0 17 17" fill="none" xmlns="http://www.w3.org/2000/svg">
<g clip-path="url(#clip0_822_11691)">
<path d="M7.22333 10.89L8.16667 11.8333L11.5 8.5L8.16667 5.16667L7.22333 6.11L8.94667 7.83333H2.5V9.16667H8.94667L7.22333 10.89ZM13.1667 2.5H3.83333C3.09667 2.5 2.5 3.09667 2.5 3.83333V6.5H3.83333V3.83333H13.1667V13.1667H3.83333V10.5H2.5V13.1667C2.5 13.9033 3.09667 14.5 3.83333 14.5H13.1667C13.9033 14.5 14.5 13.9033 14.5 13.1667V3.83333C14.5 3.09667 13.9033 2.5 13.1667 2.5Z" fill="#7791C2"/>
</g>
<defs>
<clipPath id="clip0_822_11691">
<rect width="16" height="16" fill="white" transform="translate(0.5 0.5)"/>
</clipPath>
</defs>
</svg>
