<svg width="24" height="24" viewBox="0 0 24 24" fill="none" xmlns="http://www.w3.org/2000/svg">
<g clip-path="url(#clip0_805_300)">
<path d="M12 24C18.6274 24 24 18.6274 24 12C24 5.37258 18.6274 0 12 0C5.37258 0 0 5.37258 0 12C0 18.6274 5.37258 24 12 24Z" fill="#5C6BC0"/>
<path d="M17.7969 8.04746C16.0681 6.78645 14.4545 6.72543 14.1495 6.72543L13.9528 6.91526C16.1562 7.54577 17.2274 8.52882 17.2274 8.52882C11.4783 5.69492 6.72572 8.4339 6.61725 8.46102C6.61725 8.46102 7.68165 7.41017 10.0342 6.84746L9.89182 6.70509C9.89182 6.70509 8.10877 6.63729 6.19013 8.0339C6.19013 8.0339 4.27148 11.3288 4.27148 15.3898C4.27148 15.3898 5.33589 17.2136 8.25793 17.2814C8.25793 17.2814 8.68504 16.7254 9.11216 16.2305C7.47148 15.7424 6.8342 14.7593 6.8342 14.7593C6.8342 14.7593 6.97657 14.8271 7.19352 14.9695H7.25454C7.28843 14.9695 7.30199 14.9831 7.31555 15.0034V15.0102C7.32911 15.0237 7.34945 15.0441 7.37657 15.0441C10.8613 16.461 13.7766 16.7864 17.1054 14.6915C17.1054 14.6915 16.4681 15.6746 14.7596 16.1627C15.1122 16.6509 15.6071 17.2136 15.6071 17.2136C18.5291 17.1525 19.6613 15.3288 19.7291 15.4034C19.7291 11.3492 17.7969 8.04746 17.7969 8.04746ZM9.53928 14.1424C8.79352 14.1424 8.19013 13.5119 8.19013 12.7458C8.19013 11.9729 8.8003 11.3424 9.53928 11.3424H9.54606C10.2918 11.3424 10.8952 11.9729 10.8952 12.739C10.8884 13.5119 10.285 14.1424 9.53928 14.1424ZM14.38 14.1424C13.6342 14.1424 13.0308 13.5119 13.0308 12.7458C13.0308 11.9729 13.641 11.3424 14.38 11.3424C15.1257 11.3424 15.7291 11.9729 15.7291 12.739C15.7291 13.5119 15.1257 14.1424 14.38 14.1424Z" fill="white"/>
</g>
<defs>
<clipPath id="clip0_805_300">
<rect width="24" height="24" fill="white"/>
</clipPath>
</defs>
</svg>
