<svg width="24" height="24" viewBox="0 0 24 24" fill="none" xmlns="http://www.w3.org/2000/svg">
<g clip-path="url(#clip0_805_289)">
<path d="M12 24C18.6274 24 24 18.6274 24 12C24 5.37258 18.6274 0 12 0C5.37258 0 0 5.37258 0 12C0 18.6274 5.37258 24 12 24Z" fill="#3B5998"/>
<path d="M15.0163 12.4697H12.875V20.3143H9.63083V12.4697H8.08789V9.71284H9.63083V7.92882C9.63083 6.65305 10.2368 4.65533 12.9039 4.65533L15.307 4.66539V7.34142H13.5634C13.2774 7.34142 12.8752 7.48431 12.8752 8.09289V9.71541H15.2997L15.0163 12.4697Z" fill="white"/>
</g>
<defs>
<clipPath id="clip0_805_289">
<rect width="24" height="24" fill="white"/>
</clipPath>
</defs>
</svg>
