<svg width="24" height="24" viewBox="0 0 24 24" fill="none" xmlns="http://www.w3.org/2000/svg">
<g clip-path="url(#clip0_805_293)">
<path d="M11.9999 23.9998C18.6273 23.9998 23.9998 18.6273 23.9998 11.9999C23.9998 5.37254 18.6273 0 11.9999 0C5.37254 0 0 5.37254 0 11.9999C0 18.6273 5.37254 23.9998 11.9999 23.9998Z" fill="#55ACEE"/>
<path d="M19.3508 8.62399C18.8366 8.85202 18.2834 9.00625 17.7033 9.07513C18.2956 8.72025 18.7502 8.15874 18.9647 7.48856C18.4105 7.81734 17.7963 8.05585 17.1433 8.18441C16.62 7.62718 15.8746 7.27893 15.0491 7.27893C13.4653 7.27893 12.1808 8.56346 12.1808 10.1472C12.1808 10.3721 12.2062 10.5909 12.2554 10.8009C9.87163 10.6814 7.75799 9.53953 6.34319 7.80365C6.09634 8.22719 5.95473 8.72025 5.95473 9.24583C5.95473 10.2407 6.46148 11.119 7.2307 11.6333C6.76074 11.6185 6.31816 11.4895 5.93163 11.2741C5.93142 11.2863 5.93142 11.2985 5.93142 11.3105C5.93142 12.7003 6.92053 13.8594 8.23244 14.1227C7.99201 14.1886 7.73809 14.2235 7.47691 14.2235C7.29167 14.2235 7.1122 14.2057 6.93722 14.1724C7.30215 15.3117 8.36121 16.141 9.61665 16.1643C8.6348 16.9337 7.39819 17.3921 6.05399 17.3921C5.82296 17.3921 5.59408 17.3787 5.37012 17.3519C6.63881 18.1661 8.14688 18.6407 9.7666 18.6407C15.0425 18.6407 17.9277 14.2701 17.9277 10.4794C17.9277 10.3552 17.9249 10.2313 17.9193 10.1085C18.4802 9.70424 18.9664 9.1992 19.3508 8.62399Z" fill="#F1F2F2"/>
</g>
<defs>
<clipPath id="clip0_805_293">
<rect width="24" height="24" fill="white"/>
</clipPath>
</defs>
</svg>
