<svg width="16" height="16" viewBox="0 0 16 16" fill="none" xmlns="http://www.w3.org/2000/svg">
<path fill-rule="evenodd" clip-rule="evenodd" d="M8 0C3.58172 0 0 3.58172 0 8C0 12.4183 3.58172 16 8 16C12.4183 16 16 12.4183 16 8C16 3.58172 12.4183 0 8 0ZM7.77719 6.77931L7.7604 6.50249C7.71004 5.78502 8.15211 5.1297 8.85159 4.87548C9.109 4.78509 9.54547 4.77379 9.83086 4.85288C9.94278 4.88677 10.1554 4.99976 10.3065 5.10145L10.5807 5.28788L10.8829 5.19184C11.0508 5.141 11.2746 5.05625 11.3753 4.99976C11.4704 4.94892 11.5544 4.92067 11.5544 4.93762C11.5544 5.03366 11.3473 5.36132 11.1739 5.5421C10.9388 5.79632 11.006 5.81892 11.4816 5.64944C11.767 5.5534 11.7726 5.5534 11.7167 5.66074C11.6831 5.71723 11.5096 5.91496 11.3249 6.09574C11.0116 6.40645 10.9948 6.44035 10.9948 6.70021C10.9948 7.10132 10.8045 7.93742 10.6143 8.39502C10.2617 9.25372 9.5063 10.1407 8.75086 10.587C7.68765 11.214 6.27191 11.3722 5.08 11.005C4.68269 10.8807 4 10.5644 4 10.5079C4 10.4909 4.20705 10.4683 4.45886 10.4627C4.98487 10.4514 5.51088 10.3045 5.95854 10.0446L6.26072 9.86385L5.91377 9.74521C5.42134 9.57573 4.97927 9.18593 4.86735 8.81872C4.83378 8.70008 4.84497 8.69444 5.15834 8.69444L5.4829 8.68879L5.2087 8.55885C4.88414 8.39502 4.58756 8.1182 4.44207 7.83573C4.33575 7.63236 4.20145 7.11827 4.24062 7.07872C4.25181 7.06177 4.36933 7.09567 4.50362 7.14086C4.88974 7.2821 4.9401 7.2482 4.71627 7.01093C4.29658 6.58158 4.16787 5.9432 4.36933 5.33872L4.46445 5.06755L4.83378 5.43476C5.58922 6.17483 6.47895 6.61547 7.4974 6.74541L7.77719 6.77931Z" fill="white"/>
</svg>
