<svg width="16" height="16" viewBox="0 0 16 16" fill="none" xmlns="http://www.w3.org/2000/svg">
<path fill-rule="evenodd" clip-rule="evenodd" d="M8 0C3.58172 0 0 3.58172 0 8C0 12.4183 3.58172 16 8 16C12.4183 16 16 12.4183 16 8C16 3.58172 12.4183 0 8 0ZM11.3339 5.24977C11.701 5.35053 11.9902 5.6474 12.0883 6.0244C12.2667 6.70767 12.2667 8.13333 12.2667 8.13333C12.2667 8.13333 12.2667 9.55893 12.0883 10.2423C11.9902 10.6193 11.701 10.9161 11.3339 11.0169C10.6685 11.2 8 11.2 8 11.2C8 11.2 5.33154 11.2 4.66608 11.0169C4.29891 10.9161 4.00974 10.6193 3.91161 10.2423C3.73333 9.55893 3.73333 8.13333 3.73333 8.13333C3.73333 8.13333 3.73333 6.70767 3.91161 6.0244C4.00974 5.6474 4.29891 5.35053 4.66608 5.24977C5.33154 5.06666 8 5.06666 8 5.06666C8 5.06666 10.6685 5.06666 11.3339 5.24977Z" fill="white"/>
<path d="M7.20001 9.6V6.93334L9.33335 8.26672L7.20001 9.6Z" fill="white"/>
</svg>
