<svg width="102" height="25" viewBox="0 0 102 25" fill="none" xmlns="http://www.w3.org/2000/svg">
<path d="M4.58181 14.5811V19.9738H0.148926V0.602051H8.53975C12.9726 0.602051 15.5057 3.69106 15.5057 7.46069C15.5057 11.4397 12.7615 14.5811 8.17034 14.5811H4.58181ZM4.58181 4.63346V10.602H8.0648C9.96461 10.602 11.0728 9.39786 11.0728 7.61776C11.0728 5.83765 9.9646 4.68582 7.90648 4.68582H4.58181V4.63346Z" fill="#000000"/>
<path d="M17.7749 20.0261V5.47114H21.7328V7.46067C22.7355 6.15177 24.1604 5.26172 26.0074 5.26172V9.24078C23.0521 9.24078 21.7856 10.8638 21.7856 13.3769V20.0261H17.7749Z" fill="#000000"/>
<path d="M42.631 12.801C42.631 16.9895 39.2535 20.3402 34.7679 20.3402C30.2822 20.3402 26.9048 17.0418 26.9048 12.801C26.9048 8.56014 30.2822 5.20935 34.7679 5.20935C39.2535 5.20935 42.631 8.56014 42.631 12.801ZM30.8099 12.801C30.8099 15.1046 32.4459 16.8324 34.6623 16.8324C36.8788 16.8324 38.673 15.1046 38.673 12.801C38.673 10.445 36.9843 8.76956 34.7151 8.76956C32.4459 8.76956 30.8099 10.445 30.8099 12.801Z" fill="#000000"/>
<path d="M48.4887 6.9371C49.2275 6.0994 50.7051 5.20935 52.7632 5.20935C56.1934 5.20935 58.4099 7.56537 58.4099 11.0732V19.9737H54.452V11.7539C54.452 10.0261 53.5021 8.82192 51.7606 8.82192C49.808 8.82192 48.5414 10.0261 48.5414 12.068V19.9737H44.5835V5.47113H48.4887V6.9371Z" fill="#000000"/>
<path d="M69.1227 19.5026C67.7506 23.3769 66.0092 25 62.3679 25H60.943V21.4398H62.1568C63.4761 21.4398 64.3204 20.7068 64.8482 19.555L59.4126 5.41882H63.951L66.9591 14.3717L69.9143 5.41882H74.0306L69.1227 19.5026Z" fill="#000000"/>
<path d="M73.8193 20.0261V15.9424H77.9356V20.0261H73.8193Z" fill="#000000"/>
<path d="M80.2573 4.21462V0.602051H84.2153V4.21462H80.2573ZM80.2573 20.0261V5.47116H84.2153V19.9738H80.2573V20.0261Z" fill="#000000"/>
<path d="M102 12.801C102 16.9895 98.6222 20.3402 94.1365 20.3402C89.6509 20.3402 86.2734 17.0418 86.2734 12.801C86.2734 8.56014 89.6509 5.20935 94.1365 5.20935C98.6222 5.20935 102 8.56014 102 12.801ZM90.1786 12.801C90.1786 15.1046 91.8145 16.8324 94.031 16.8324C96.2474 16.8324 98.0417 15.1046 98.0417 12.801C98.0417 10.445 96.353 8.76956 94.0838 8.76956C91.8146 8.76956 90.1786 10.445 90.1786 12.801Z" fill="#000000"/>
</svg>
