<svg width="102" height="25" viewBox="0 0 102 25" fill="none" xmlns="http://www.w3.org/2000/svg">
<path d="M4.58206 14.5811V19.9738H0.14917V0.602051H8.53999C12.9729 0.602051 15.506 3.69106 15.506 7.46069C15.506 11.4397 12.7618 14.5811 8.17058 14.5811H4.58206ZM4.58206 4.63346V10.602H8.06504C9.96485 10.602 11.0731 9.39786 11.0731 7.61776C11.0731 5.83765 9.96485 4.68582 7.90672 4.68582H4.58206V4.63346Z" fill="white"/>
<path d="M17.7751 20.0261V5.47114H21.7331V7.46067C22.7358 6.15177 24.1606 5.26172 26.0076 5.26172V9.24078C23.0524 9.24078 21.7859 10.8638 21.7859 13.3769V20.0261H17.7751Z" fill="white"/>
<path d="M42.631 12.8011C42.631 16.9896 39.2535 20.3404 34.7679 20.3404C30.2822 20.3404 26.9048 17.0419 26.9048 12.8011C26.9048 8.56026 30.2822 5.20947 34.7679 5.20947C39.2535 5.20947 42.631 8.56026 42.631 12.8011ZM30.8099 12.8011C30.8099 15.1048 32.4459 16.8325 34.6623 16.8325C36.8788 16.8325 38.673 15.1048 38.673 12.8011C38.673 10.4451 36.9843 8.76968 34.7151 8.76968C32.4459 8.76968 30.8099 10.4451 30.8099 12.8011Z" fill="white"/>
<path d="M48.4887 6.93722C49.2275 6.09952 50.7052 5.20947 52.7633 5.20947C56.1935 5.20947 58.41 7.56549 58.41 11.0733V19.9739H54.452V11.754C54.452 10.0262 53.5021 8.82204 51.7606 8.82204C49.808 8.82204 48.5415 10.0262 48.5415 12.0681V19.9739H44.5836V5.47125H48.4887V6.93722Z" fill="white"/>
<path d="M69.1228 19.5025C67.7507 23.3768 66.0092 24.9999 62.3679 24.9999H60.9431V21.4396H62.1568C63.4761 21.4396 64.3205 20.7067 64.8482 19.5548L59.4127 5.4187H63.9511L66.9591 14.3716L69.9144 5.4187H74.0306L69.1228 19.5025Z" fill="white"/>
<path d="M73.8196 20.0261V15.9424H77.9358V20.0261H73.8196Z" fill="white"/>
<path d="M80.2578 4.21462V0.602051H84.2157V4.21462H80.2578ZM80.2578 20.0261V5.47116H84.2157V19.9738H80.2578V20.0261Z" fill="white"/>
<path d="M102 12.8011C102 16.9896 98.6226 20.3404 94.1369 20.3404C89.6512 20.3404 86.2738 17.0419 86.2738 12.8011C86.2738 8.56026 89.6512 5.20947 94.1369 5.20947C98.6226 5.20947 102 8.56026 102 12.8011ZM90.179 12.8011C90.179 15.1048 91.8149 16.8325 94.0314 16.8325C96.2478 16.8325 98.0421 15.1048 98.0421 12.8011C98.0421 10.4451 96.3534 8.76968 94.0841 8.76968C91.8149 8.76968 90.179 10.4451 90.179 12.8011Z" fill="white"/>
</svg>
