<svg width="26" height="30" viewBox="0 0 26 30" fill="none" xmlns="http://www.w3.org/2000/svg">
<path d="M12.7709 0C5.7522 0 0 5.70681 0 12.6702C0 15.8639 1.16099 18.7435 3.11358 20.9948C3.58853 20.8377 4.11625 20.733 4.64398 20.733C7.07151 20.733 9.02409 22.5654 9.28795 24.8691C10.3962 25.1832 11.5572 25.3403 12.7709 25.3403C19.8424 25.3403 25.5419 19.6335 25.5419 12.6702C25.5946 5.70681 19.8424 0 12.7709 0ZM12.7709 19.4241C9.02409 19.4241 6.01606 16.4398 6.01606 12.7225C6.01606 9.00524 9.02409 6.02094 12.7709 6.02094C16.5178 6.02094 19.5258 9.00524 19.5258 12.7225C19.5258 16.3874 16.5178 19.4241 12.7709 19.4241Z" fill="#1565C0"/>
<path d="M3.11358 20.9948C1.31931 21.623 0 23.3508 0 25.3927C0 27.9581 2.1109 30 4.64398 30C7.22983 30 9.28795 27.9057 9.28795 25.3927C9.28795 25.2356 9.28795 25.0785 9.28795 24.9215C6.86042 24.2408 4.74952 22.8272 3.11358 20.9948Z" fill="url(#paint0_linear_2385_175)"/>
<defs>
<linearGradient id="paint0_linear_2385_175" x1="21.413" y1="5.00627" x2="2.94388" y2="27.8372" gradientUnits="userSpaceOnUse">
<stop stop-color="#2AFFA9"/>
<stop offset="1" stop-color="#03B8FD"/>
</linearGradient>
</defs>
</svg>
