<svg width="24" height="24" viewBox="0 0 24 24" fill="none" xmlns="http://www.w3.org/2000/svg"><g clip-path="url(#a)"><path d="M12 24c6.627 0 12-5.373 12-12S18.627 0 12 0 0 5.373 0 12s5.373 12 12 12Z" fill="#5C6BC0"/><path d="M17.797 8.047c-1.729-1.26-3.343-1.322-3.648-1.322l-.196.19c2.203.63 3.274 1.614 3.274 1.614-5.749-2.834-10.501-.095-10.61-.068 0 0 1.065-1.05 3.417-1.614l-.142-.142S8.109 6.637 6.19 8.034c0 0-1.919 3.295-1.919 7.356 0 0 1.065 1.824 3.987 1.891 0 0 .427-.556.854-1.05-1.64-.489-2.278-1.472-2.278-1.472s.143.068.36.21h.06c.034 0 .048.014.062.034v.007c.013.014.033.034.06.034 3.485 1.417 6.4 1.742 9.73-.353 0 0-.638.984-2.346 1.472.352.488.847 1.05.847 1.05 2.922-.06 4.054-1.884 4.122-1.81 0-4.054-1.932-7.356-1.932-7.356Zm-8.258 6.095c-.745 0-1.349-.63-1.349-1.396 0-.773.61-1.404 1.35-1.404h.006c.746 0 1.35.63 1.35 1.397-.008.773-.611 1.403-1.357 1.403Zm4.841 0c-.746 0-1.35-.63-1.35-1.396 0-.773.611-1.404 1.35-1.404.746 0 1.35.63 1.35 1.397 0 .773-.604 1.403-1.35 1.403Z" fill="#fff"/></g><defs><clipPath id="a"><path fill="#fff" d="M0 0h24v24H0z"/></clipPath></defs></svg>