<svg width="24" height="24" viewBox="0 0 24 24" fill="none" xmlns="http://www.w3.org/2000/svg"><g clip-path="url(#a)"><path d="m5.319 14.504-.835 3.118-3.054.065A11.946 11.946 0 0 1 0 12c0-1.99.484-3.866 1.342-5.519l2.719.499 1.19 2.702A7.133 7.133 0 0 0 4.868 12c0 .88.16 1.725.452 2.504Z" fill="#FBBB00"/><path d="M23.79 9.758a12.028 12.028 0 0 1-.053 4.747 11.998 11.998 0 0 1-4.225 6.853l-3.424-.175-.485-3.025a7.152 7.152 0 0 0 3.077-3.653h-6.416V9.758H23.79Z" fill="#518EF8"/><path d="m19.511 21.357.001.001A11.95 11.95 0 0 1 12 24c-4.57 0-8.543-2.554-10.57-6.313l3.888-3.184a7.135 7.135 0 0 0 10.285 3.655l3.908 3.2Z" fill="#28B446"/><path d="m19.66 2.763-3.887 3.182a7.137 7.137 0 0 0-10.52 3.736l-3.91-3.2A11.998 11.998 0 0 1 12 0a11.95 11.95 0 0 1 7.66 2.763Z" fill="#F14336"/></g><defs><clipPath id="a"><path fill="#fff" d="M0 0h24v24H0z"/></clipPath></defs></svg>