<svg width="16" height="16" viewBox="0 0 16 16" fill="none" xmlns="http://www.w3.org/2000/svg"><path fill-rule="evenodd" clip-rule="evenodd" d="M8 0a8 8 0 1 0 0 16A8 8 0 0 0 8 0ZM6.241 3.76c.455-.022.6-.027 1.76-.027h-.002c1.16 0 1.304.005 1.76.026.453.02.764.093 1.036.198.28.11.518.255.755.492s.383.476.493.756c.105.271.177.581.198 1.036.02.455.026.6.026 1.759 0 1.159-.006 1.304-.026 1.759-.021.454-.093.764-.198 1.035-.11.281-.255.52-.493.756a2.087 2.087 0 0 1-.755.493c-.272.105-.582.177-1.036.198-.455.02-.6.026-1.76.026-1.158 0-1.303-.005-1.758-.026-.454-.02-.765-.093-1.036-.198a2.088 2.088 0 0 1-.756-.493 2.091 2.091 0 0 1-.492-.756c-.105-.27-.177-.58-.198-1.035-.02-.455-.026-.6-.026-1.759 0-1.159.006-1.304.026-1.76.02-.453.092-.764.198-1.035a2.1 2.1 0 0 1 .493-.756 2.09 2.09 0 0 1 .756-.492c.27-.105.58-.177 1.035-.198Z" fill="#fff"/><path fill-rule="evenodd" clip-rule="evenodd" d="M7.618 4.502H8c1.14 0 1.275.004 1.725.025.415.019.641.088.792.147.199.077.34.17.49.319.15.15.242.291.32.49.058.15.127.376.146.792.02.45.025.585.025 1.724s-.004 1.274-.025 1.724c-.019.416-.088.641-.147.792-.077.199-.17.34-.319.49a1.32 1.32 0 0 1-.49.319c-.15.059-.377.128-.792.147-.45.02-.585.025-1.725.025-1.139 0-1.274-.005-1.724-.025-.416-.02-.641-.089-.792-.147-.2-.078-.341-.17-.49-.32a1.322 1.322 0 0 1-.32-.49c-.058-.15-.128-.376-.147-.792-.02-.45-.024-.585-.024-1.724 0-1.14.004-1.274.024-1.724.02-.416.089-.641.147-.792.077-.199.17-.341.32-.49.149-.15.29-.242.49-.32.15-.058.376-.128.792-.147.394-.018.546-.023 1.342-.024v.001Zm2.66.709a.512.512 0 1 0 0 1.024.512.512 0 0 0 0-1.024ZM5.809 8a2.191 2.191 0 1 1 4.383 0 2.191 2.191 0 0 1-4.383 0Z" fill="#fff"/><path d="M8 6.578a1.422 1.422 0 1 1 0 2.844 1.422 1.422 0 0 1 0-2.844Z" fill="#fff"/></svg>