<svg width="16" height="16" viewBox="0 0 16 16" fill="none" xmlns="http://www.w3.org/2000/svg"><path fill-rule="evenodd" clip-rule="evenodd" d="M8 0a8 8 0 1 0 0 16A8 8 0 0 0 8 0Zm-.223 6.78-.017-.278c-.05-.717.392-1.372 1.092-1.627.257-.09.693-.101.979-.022.112.034.324.147.476.248l.274.187.302-.096A3.12 3.12 0 0 0 11.375 5c.095-.051.18-.08.18-.062 0 .096-.208.423-.381.604-.235.254-.168.277.308.107.285-.096.29-.096.235.012a3.692 3.692 0 0 1-.392.435c-.313.31-.33.344-.33.604 0 .401-.19 1.237-.38 1.695-.353.859-1.109 1.746-1.864 2.192-1.063.627-2.48.785-3.671.418-.397-.124-1.08-.44-1.08-.497 0-.017.207-.04.459-.045a3.15 3.15 0 0 0 1.5-.418l.302-.181-.347-.119c-.493-.17-.935-.56-1.047-.926-.033-.119-.022-.125.291-.125l.325-.005-.274-.13c-.325-.164-.621-.44-.767-.723-.106-.204-.24-.718-.201-.757.01-.017.128.017.263.062.386.141.436.107.212-.13-.42-.43-.548-1.068-.347-1.672l.095-.271.37.367c.755.74 1.645 1.18 2.663 1.31l.28.034Z" fill="#fff"/></svg>