<svg width="24" height="24" viewBox="0 0 24 24" fill="none" xmlns="http://www.w3.org/2000/svg"><g clip-path="url(#a)"><path d="M12 24c6.627 0 12-5.373 12-12S18.627 0 12 0 0 5.373 0 12s5.373 12 12 12Z" fill="#55ACEE"/><path d="M19.35 8.624a5.722 5.722 0 0 1-1.647.451 2.876 2.876 0 0 0 1.262-1.586 5.742 5.742 0 0 1-1.822.695 2.869 2.869 0 0 0-4.888 2.616 8.142 8.142 0 0 1-5.912-2.996 2.868 2.868 0 0 0 .888 3.83 2.849 2.849 0 0 1-1.3-.36v.037c0 1.39.99 2.548 2.301 2.812a2.858 2.858 0 0 1-1.295.05 2.871 2.871 0 0 0 2.68 1.991 5.755 5.755 0 0 1-4.247 1.188 8.113 8.113 0 0 0 4.397 1.289c5.276 0 8.16-4.37 8.16-8.162a8.15 8.15 0 0 0-.008-.37 5.816 5.816 0 0 0 1.432-1.485Z" fill="#F1F2F2"/></g><defs><clipPath id="a"><path fill="#fff" d="M0 0h24v24H0z"/></clipPath></defs></svg>