<svg width="16" height="16" viewBox="0 0 16 16" fill="none" xmlns="http://www.w3.org/2000/svg"><path fill-rule="evenodd" clip-rule="evenodd" d="M8 0a8 8 0 1 0 0 16A8 8 0 0 0 8 0Zm3.334 5.25c.367.1.656.397.754.774.179.684.179 2.11.179 2.11s0 1.425-.179 2.108a1.083 1.083 0 0 1-.754.775C10.669 11.2 8 11.2 8 11.2s-2.668 0-3.334-.183a1.083 1.083 0 0 1-.754-.775c-.179-.683-.179-2.109-.179-2.109s0-1.425.179-2.109c.098-.377.387-.673.754-.774C5.332 5.067 8 5.067 8 5.067s2.668 0 3.334.183Z" fill="#fff"/><path d="M7.2 9.6V6.933l2.133 1.334L7.2 9.6Z" fill="#fff"/></svg>