<svg width="22" height="22" viewBox="0 0 22 22" fill="none" xmlns="http://www.w3.org/2000/svg">
<g >
<path fill-rule="evenodd" clip-rule="evenodd" d="M11 13.5C12.3807 13.5 13.5 12.3807 13.5 11C13.5 9.61929 12.3807 8.5 11 8.5C9.61929 8.5 8.5 9.61929 8.5 11C8.5 12.3807 9.61929 13.5 11 13.5Z" stroke="#000000" stroke-width="1.8" stroke-linecap="round" stroke-linejoin="round"/>
<path fill-rule="evenodd" clip-rule="evenodd" d="M17.1668 13.5C16.9399 14.0143 17.0488 14.6149 17.4418 15.0167L17.4918 15.0667C17.8048 15.3793 17.9806 15.8035 17.9806 16.2459C17.9806 16.6882 17.8048 17.1124 17.4918 17.425C17.1792 17.738 16.755 17.9139 16.3127 17.9139C15.8703 17.9139 15.4461 17.738 15.1335 17.425L15.0835 17.375C14.6817 16.982 14.0811 16.8731 13.5668 17.1C13.0631 17.3159 12.7357 17.8103 12.7335 18.3584V18.5C12.7335 19.4205 11.9873 20.1667 11.0668 20.1667C10.1464 20.1667 9.40016 19.4205 9.40016 18.5V18.425C9.38696 17.8606 9.03006 17.3616 8.50016 17.1667C7.98592 16.9398 7.38532 17.0487 6.9835 17.4417L6.9335 17.4917C6.62088 17.8047 6.19668 17.9805 5.75433 17.9805C5.31198 17.9805 4.88778 17.8047 4.57516 17.4917C4.2622 17.1791 4.08635 16.7549 4.08635 16.3125C4.08635 15.8702 4.2622 15.446 4.57516 15.1334L4.62516 15.0834C5.01822 14.6816 5.12712 14.0809 4.90016 13.5667C4.68427 13.063 4.18987 12.7356 3.64183 12.7334H3.50016C2.57969 12.7334 1.8335 11.9872 1.8335 11.0667C1.8335 10.1462 2.57969 9.40004 3.50016 9.40004H3.57516C4.1396 9.38684 4.63861 9.02993 4.8335 8.50004C5.06045 7.9858 4.95155 7.3852 4.5585 6.98337L4.5085 6.93337C4.19553 6.62076 4.01968 6.19656 4.01968 5.75421C4.01968 5.31186 4.19553 4.88765 4.5085 4.57504C4.82111 4.26208 5.24531 4.08623 5.68766 4.08623C6.13001 4.08623 6.55422 4.26208 6.86683 4.57504L6.91683 4.62504C7.31865 5.0181 7.91925 5.127 8.4335 4.90004H8.50016C9.00389 4.68415 9.33131 4.18974 9.3335 3.64171V3.50004C9.3335 2.57957 10.0797 1.83337 11.0002 1.83337C11.9206 1.83337 12.6668 2.57957 12.6668 3.50004V3.57504C12.669 4.12308 12.9964 4.61748 13.5002 4.83337C14.0144 5.06033 14.615 4.95143 15.0168 4.55837L15.0668 4.50837C15.3794 4.19541 15.8036 4.01956 16.246 4.01956C16.6883 4.01956 17.1125 4.19541 17.4252 4.50837C17.7381 4.82099 17.914 5.24519 17.914 5.68754C17.914 6.12989 17.7381 6.55409 17.4252 6.86671L17.3752 6.91671C16.9821 7.31853 16.8732 7.91913 17.1002 8.43337V8.50004C17.3161 9.00377 17.8105 9.33119 18.3585 9.33337H18.5002C19.4206 9.33337 20.1668 10.0796 20.1668 11C20.1668 11.9205 19.4206 12.6667 18.5002 12.6667H18.4252C17.8771 12.6689 17.3827 12.9963 17.1668 13.5Z" stroke="#000000" stroke-width="1.8" stroke-linecap="round" stroke-linejoin="round"/>
</g>
</svg>
