<svg width="20" height="20" viewBox="0 0 20 20" fill="none" xmlns="http://www.w3.org/2000/svg">
<g>
<path fill-rule="evenodd" clip-rule="evenodd" d="M7.52987 1.66663C5.18723 1.66663 3.34659 3.49996 3.34659 5.83329C3.34659 8.16663 5.18723 9.99996 7.52987 9.99996C9.8725 9.99996 11.7131 8.16663 11.7131 5.83329C11.7131 3.49996 9.8725 1.66663 7.52987 1.66663ZM15.0598 15.8333V17.5C15.0598 18 14.7251 18.3333 14.2231 18.3333C13.7211 18.3333 13.3865 18 13.3865 17.5V15.8333C13.3865 14.4166 12.2988 13.3333 10.8765 13.3333H4.18328C2.76096 13.3333 1.67331 14.4166 1.67331 15.8333V17.5C1.67331 18 1.33865 18.3333 0.836655 18.3333C0.334662 18.3333 0 18 0 17.5V15.8333C0 13.5 1.84064 11.6666 4.18328 11.6666H10.8765C13.2192 11.6666 15.0598 13.5 15.0598 15.8333ZM16.9004 11.8333C16.4821 11.75 15.9801 12 15.8964 12.4166C15.8128 12.8333 16.0638 13.3333 16.4821 13.4166C17.5697 13.6666 18.3227 14.6666 18.3227 15.8333V17.5C18.3227 18 18.6574 18.3333 19.1594 18.3333C19.6614 18.3333 19.996 18 19.996 17.5V15.8333C20.0797 13.9166 18.8247 12.25 16.9004 11.8333ZM5.01993 5.83329C5.01993 7.24996 6.10758 8.33329 7.52989 8.33329C8.95221 8.33329 10.0399 7.24996 10.0399 5.83329C10.0399 4.41663 8.95221 3.33329 7.52989 3.33329C6.10758 3.33329 5.01993 4.41663 5.01993 5.83329ZM12.5499 2.41662C12.7172 1.91662 13.1355 1.66663 13.5538 1.83329C15.8128 2.33329 17.1515 4.66662 16.5658 6.99996C16.2311 8.49996 15.0598 9.58329 13.5538 9.99996H13.3865C12.9682 9.99996 12.6335 9.74996 12.5499 9.33329C12.3825 8.91663 12.7172 8.41663 13.1355 8.33329C14.0558 8.08329 14.7252 7.41663 14.9762 6.49996C15.3108 5.08329 14.4742 3.74996 13.1355 3.41662C12.7172 3.33329 12.4662 2.83329 12.5499 2.41662Z" fill="#000000"/>
<mask id="mask0_3559_246" style="mask-type:luminance" maskUnits="userSpaceOnUse" x="0" y="1" width="20" height="18">
<path fill-rule="evenodd" clip-rule="evenodd" d="M7.52987 1.66663C5.18723 1.66663 3.34659 3.49996 3.34659 5.83329C3.34659 8.16663 5.18723 9.99996 7.52987 9.99996C9.8725 9.99996 11.7131 8.16663 11.7131 5.83329C11.7131 3.49996 9.8725 1.66663 7.52987 1.66663ZM15.0598 15.8333V17.5C15.0598 18 14.7251 18.3333 14.2231 18.3333C13.7211 18.3333 13.3865 18 13.3865 17.5V15.8333C13.3865 14.4166 12.2988 13.3333 10.8765 13.3333H4.18328C2.76096 13.3333 1.67331 14.4166 1.67331 15.8333V17.5C1.67331 18 1.33865 18.3333 0.836655 18.3333C0.334662 18.3333 0 18 0 17.5V15.8333C0 13.5 1.84064 11.6666 4.18328 11.6666H10.8765C13.2192 11.6666 15.0598 13.5 15.0598 15.8333ZM16.9004 11.8333C16.4821 11.75 15.9801 12 15.8964 12.4166C15.8128 12.8333 16.0638 13.3333 16.4821 13.4166C17.5697 13.6666 18.3227 14.6666 18.3227 15.8333V17.5C18.3227 18 18.6574 18.3333 19.1594 18.3333C19.6614 18.3333 19.996 18 19.996 17.5V15.8333C20.0797 13.9166 18.8247 12.25 16.9004 11.8333ZM5.01993 5.83329C5.01993 7.24996 6.10758 8.33329 7.52989 8.33329C8.95221 8.33329 10.0399 7.24996 10.0399 5.83329C10.0399 4.41663 8.95221 3.33329 7.52989 3.33329C6.10758 3.33329 5.01993 4.41663 5.01993 5.83329ZM12.5499 2.41662C12.7172 1.91662 13.1355 1.66663 13.5538 1.83329C15.8128 2.33329 17.1515 4.66662 16.5658 6.99996C16.2311 8.49996 15.0598 9.58329 13.5538 9.99996H13.3865C12.9682 9.99996 12.6335 9.74996 12.5499 9.33329C12.3825 8.91663 12.7172 8.41663 13.1355 8.33329C14.0558 8.08329 14.7252 7.41663 14.9762 6.49996C15.3108 5.08329 14.4742 3.74996 13.1355 3.41662C12.7172 3.33329 12.4662 2.83329 12.5499 2.41662Z" fill="#ffffff"/>
</mask>
<g mask="url(#mask0_3559_246)">
<rect width="20" height="20" fill="#000000"/>
</g>
</g>
</svg>
