<svg width="20" height="20" viewBox="0 0 20 20" fill="none" xmlns="http://www.w3.org/2000/svg">
<g>
<path fill-rule="evenodd" clip-rule="evenodd" d="M15.8335 9.99996C15.8335 9.49996 16.1668 9.16663 16.6668 9.16663C17.1668 9.16663 17.5002 9.49996 17.5002 9.99996V15.8333C17.5002 17.25 16.4168 18.3333 15.0002 18.3333H3.3335C1.91683 18.3333 0.833496 17.25 0.833496 15.8333V4.16663C0.833496 2.74996 1.91683 1.66663 3.3335 1.66663H12.5002C13.0002 1.66663 13.3335 1.99996 13.3335 2.49996C13.3335 2.99996 13.0002 3.33329 12.5002 3.33329H3.3335C2.8335 3.33329 2.50016 3.66663 2.50016 4.16663V15.8333C2.50016 16.3333 2.8335 16.6666 3.3335 16.6666H15.0002C15.5002 16.6666 15.8335 16.3333 15.8335 15.8333V9.99996ZM9.75016 12.25L18.9168 3.08329C19.2502 2.74996 19.2502 2.24996 18.9168 1.91663C18.5835 1.58329 18.0835 1.58329 17.7502 1.91663L9.16683 10.5L7.25016 8.58329C6.91683 8.24996 6.41683 8.24996 6.0835 8.58329C5.75016 8.91663 5.75016 9.41663 6.0835 9.74996L8.5835 12.25C8.75016 12.4166 8.91683 12.5 9.16683 12.5C9.41683 12.5 9.5835 12.4166 9.75016 12.25Z" fill="#000000"/>
<mask id="mask0_3559_265" style="mask-type:luminance" maskUnits="userSpaceOnUse" x="0" y="1" width="20" height="18">
<path fill-rule="evenodd" clip-rule="evenodd" d="M15.8335 9.99996C15.8335 9.49996 16.1668 9.16663 16.6668 9.16663C17.1668 9.16663 17.5002 9.49996 17.5002 9.99996V15.8333C17.5002 17.25 16.4168 18.3333 15.0002 18.3333H3.3335C1.91683 18.3333 0.833496 17.25 0.833496 15.8333V4.16663C0.833496 2.74996 1.91683 1.66663 3.3335 1.66663H12.5002C13.0002 1.66663 13.3335 1.99996 13.3335 2.49996C13.3335 2.99996 13.0002 3.33329 12.5002 3.33329H3.3335C2.8335 3.33329 2.50016 3.66663 2.50016 4.16663V15.8333C2.50016 16.3333 2.8335 16.6666 3.3335 16.6666H15.0002C15.5002 16.6666 15.8335 16.3333 15.8335 15.8333V9.99996ZM9.75016 12.25L18.9168 3.08329C19.2502 2.74996 19.2502 2.24996 18.9168 1.91663C18.5835 1.58329 18.0835 1.58329 17.7502 1.91663L9.16683 10.5L7.25016 8.58329C6.91683 8.24996 6.41683 8.24996 6.0835 8.58329C5.75016 8.91663 5.75016 9.41663 6.0835 9.74996L8.5835 12.25C8.75016 12.4166 8.91683 12.5 9.16683 12.5C9.41683 12.5 9.5835 12.4166 9.75016 12.25Z" fill="#ffffff"/>
</mask>
<g mask="url(#mask0_3559_265)">
<rect width="20" height="20" fill="#000000"/>
</g>
</g>
</svg>
