<svg width="20" height="20" viewBox="0 0 20 20" fill="none" xmlns="http://www.w3.org/2000/svg">
<g>
<path fill-rule="evenodd" clip-rule="evenodd" d="M3.33333 1.66663C3.79357 1.66663 4.16667 2.03972 4.16667 2.49996V8.33329C4.16667 8.79353 3.79357 9.16663 3.33333 9.16663C2.8731 9.16663 2.5 8.79353 2.5 8.33329V2.49996C2.5 2.03972 2.8731 1.66663 3.33333 1.66663ZM2.5 12.5V17.5C2.5 17.9602 2.8731 18.3333 3.33333 18.3333C3.79357 18.3333 4.16667 17.9602 4.16667 17.5V12.5H5.83333C6.29357 12.5 6.66667 12.1269 6.66667 11.6666C6.66667 11.2064 6.29357 10.8333 5.83333 10.8333H3.33333H0.833333C0.373096 10.8333 0 11.2064 0 11.6666C0 12.1269 0.373096 12.5 0.833333 12.5H2.5ZM10.8333 9.99996C10.8333 9.53972 10.4602 9.16663 10 9.16663C9.53976 9.16663 9.16667 9.53972 9.16667 9.99996V17.5C9.16667 17.9602 9.53976 18.3333 10 18.3333C10.4602 18.3333 10.8333 17.9602 10.8333 17.5V9.99996ZM10 1.66663C10.4602 1.66663 10.8333 2.03972 10.8333 2.49996V5.83329H12.5C12.9602 5.83329 13.3333 6.20639 13.3333 6.66663C13.3333 7.12686 12.9602 7.49996 12.5 7.49996H7.5C7.03976 7.49996 6.66667 7.12686 6.66667 6.66663C6.66667 6.20639 7.03976 5.83329 7.5 5.83329H9.16667V2.49996C9.16667 2.03972 9.53976 1.66663 10 1.66663ZM16.6667 12.5H19.1667C19.6269 12.5 20 12.8731 20 13.3333C20 13.7935 19.6269 14.1666 19.1667 14.1666H17.5V17.5C17.5 17.9602 17.1269 18.3333 16.6667 18.3333C16.2064 18.3333 15.8333 17.9602 15.8333 17.5V14.1666H14.1667C13.7064 14.1666 13.3333 13.7935 13.3333 13.3333C13.3333 12.8731 13.7064 12.5 14.1667 12.5H16.6667ZM16.6667 1.66663C17.1269 1.66663 17.5 2.03972 17.5 2.49996V9.99996C17.5 10.4602 17.1269 10.8333 16.6667 10.8333C16.2064 10.8333 15.8333 10.4602 15.8333 9.99996V2.49996C15.8333 2.03972 16.2064 1.66663 16.6667 1.66663Z" fill="#000000"/>
</g>
</svg>
