<svg width="20" height="20" viewBox="0 0 20 20" fill="none" xmlns="http://www.w3.org/2000/svg"><path fill-rule="evenodd" clip-rule="evenodd" d="M3.333 1.667c.46 0 .834.373.834.833v5.833a.833.833 0 0 1-1.667 0V2.5c0-.46.373-.833.833-.833ZM2.5 12.5v5a.833.833 0 0 0 1.667 0v-5h1.666a.833.833 0 0 0 0-1.667h-5a.833.833 0 1 0 0 1.667H2.5Zm8.333-2.5a.833.833 0 1 0-1.666 0v7.5a.833.833 0 0 0 1.666 0V10ZM10 1.667c.46 0 .833.373.833.833v3.333H12.5a.833.833 0 0 1 0 1.667h-5a.833.833 0 0 1 0-1.667h1.667V2.5c0-.46.373-.833.833-.833ZM16.667 12.5h2.5a.833.833 0 0 1 0 1.667H17.5V17.5a.833.833 0 0 1-1.667 0v-3.333h-1.666a.833.833 0 1 1 0-1.667h2.5Zm0-10.833c.46 0 .833.373.833.833V10a.833.833 0 1 1-1.667 0V2.5c0-.46.373-.833.834-.833Z" fill="#000"/></svg>