<svg width="22" height="22" viewBox="0 0 22 22" fill="none" xmlns="http://www.w3.org/2000/svg"><g clip-rule="evenodd" stroke="#000" stroke-width="1.8" stroke-linecap="round" stroke-linejoin="round"><path d="M11 13.5a2.5 2.5 0 1 0 0-5 2.5 2.5 0 0 0 0 5Z"/><path d="M17.167 13.5a1.375 1.375 0 0 0 .275 1.517l.05.05a1.666 1.666 0 1 1-2.359 2.358l-.05-.05a1.375 1.375 0 0 0-1.516-.275c-.504.216-.831.71-.834 1.258v.142a1.667 1.667 0 1 1-3.333 0v-.075a1.375 1.375 0 0 0-.9-1.258 1.375 1.375 0 0 0-1.516.275l-.05.05a1.667 1.667 0 1 1-2.359-2.359l.05-.05a1.375 1.375 0 0 0 .275-1.516 1.375 1.375 0 0 0-1.258-.834H3.5a1.667 1.667 0 0 1 0-3.333h.075a1.375 1.375 0 0 0 1.258-.9 1.375 1.375 0 0 0-.274-1.517l-.05-.05a1.667 1.667 0 1 1 2.358-2.358l.05.05a1.375 1.375 0 0 0 1.517.275H8.5c.504-.216.831-.71.834-1.258V3.5a1.667 1.667 0 0 1 3.333 0v.075c.002.548.33 1.042.833 1.258a1.375 1.375 0 0 0 1.517-.275l.05-.05a1.667 1.667 0 1 1 2.358 2.359l-.05.05a1.375 1.375 0 0 0-.275 1.516V8.5c.216.504.71.831 1.258.833h.142a1.667 1.667 0 0 1 0 3.334h-.075a1.375 1.375 0 0 0-1.258.833Z"/></g></svg>