<svg width="20" height="20" viewBox="0 0 20 20" fill="none" xmlns="http://www.w3.org/2000/svg"><path fill-rule="evenodd" clip-rule="evenodd" d="M15.834 10c0-.5.333-.833.833-.833.5 0 .833.333.833.833v5.833c0 1.417-1.083 2.5-2.5 2.5H3.334c-1.417 0-2.5-1.083-2.5-2.5V4.167c0-1.417 1.083-2.5 2.5-2.5H12.5c.5 0 .834.333.834.833 0 .5-.334.833-.834.833H3.334c-.5 0-.834.334-.834.834v11.666c0 .5.333.834.833.834H15c.5 0 .834-.334.834-.834V10ZM9.75 12.25l9.167-9.167a.805.805 0 0 0 0-1.166.805.805 0 0 0-1.167 0L9.167 10.5 7.25 8.583a.806.806 0 0 0-1.167 0 .806.806 0 0 0 0 1.167l2.5 2.5c.167.167.334.25.584.25.25 0 .417-.083.583-.25Z" fill="#000"/><mask id="a" style="mask-type:luminance" maskUnits="userSpaceOnUse" x="0" y="1" width="20" height="18"><path fill-rule="evenodd" clip-rule="evenodd" d="M15.834 10c0-.5.333-.833.833-.833.5 0 .833.333.833.833v5.833c0 1.417-1.083 2.5-2.5 2.5H3.334c-1.417 0-2.5-1.083-2.5-2.5V4.167c0-1.417 1.083-2.5 2.5-2.5H12.5c.5 0 .834.333.834.833 0 .5-.334.833-.834.833H3.334c-.5 0-.834.334-.834.834v11.666c0 .5.333.834.833.834H15c.5 0 .834-.334.834-.834V10ZM9.75 12.25l9.167-9.167a.805.805 0 0 0 0-1.166.805.805 0 0 0-1.167 0L9.167 10.5 7.25 8.583a.806.806 0 0 0-1.167 0 .806.806 0 0 0 0 1.167l2.5 2.5c.167.167.334.25.584.25.25 0 .417-.083.583-.25Z" fill="#fff"/></mask><g mask="url(#a)"><path fill="#000" d="M0 0h20v20H0z"/></g></svg>