<svg width="20" height="20" viewBox="0 0 20 20" fill="none" xmlns="http://www.w3.org/2000/svg"><path fill-rule="evenodd" clip-rule="evenodd" d="M7.53 1.667c-2.343 0-4.183 1.833-4.183 4.166C3.347 8.167 5.187 10 7.53 10s4.183-1.833 4.183-4.167c0-2.333-1.84-4.166-4.183-4.166Zm7.53 14.166V17.5c0 .5-.335.833-.837.833s-.837-.333-.837-.833v-1.667c0-1.416-1.087-2.5-2.51-2.5H4.184c-1.422 0-2.51 1.084-2.51 2.5V17.5c0 .5-.334.833-.836.833S0 18 0 17.5v-1.667c0-2.333 1.84-4.166 4.183-4.166h6.694c2.342 0 4.183 1.833 4.183 4.166Zm1.84-4c-.418-.083-.92.167-1.004.584-.083.416.168.916.586 1 1.088.25 1.84 1.25 1.84 2.416V17.5c0 .5.335.833.837.833s.837-.333.837-.833v-1.667c.084-1.916-1.171-3.583-3.096-4Zm-11.88-6c0 1.417 1.088 2.5 2.51 2.5 1.422 0 2.51-1.083 2.51-2.5 0-1.416-1.088-2.5-2.51-2.5-1.422 0-2.51 1.084-2.51 2.5Zm7.53-3.416c.167-.5.585-.75 1.004-.584 2.259.5 3.597 2.834 3.012 5.167-.335 1.5-1.506 2.583-3.012 3h-.168c-.418 0-.752-.25-.836-.667-.168-.416.167-.916.585-1 .92-.25 1.59-.916 1.841-1.833.335-1.417-.502-2.75-1.84-3.083-.419-.084-.67-.584-.586-1Z" fill="#000"/><mask id="a" style="mask-type:luminance" maskUnits="userSpaceOnUse" x="0" y="1" width="20" height="18"><path fill-rule="evenodd" clip-rule="evenodd" d="M7.53 1.667c-2.343 0-4.183 1.833-4.183 4.166C3.347 8.167 5.187 10 7.53 10s4.183-1.833 4.183-4.167c0-2.333-1.84-4.166-4.183-4.166Zm7.53 14.166V17.5c0 .5-.335.833-.837.833s-.837-.333-.837-.833v-1.667c0-1.416-1.087-2.5-2.51-2.5H4.184c-1.422 0-2.51 1.084-2.51 2.5V17.5c0 .5-.334.833-.836.833S0 18 0 17.5v-1.667c0-2.333 1.84-4.166 4.183-4.166h6.694c2.342 0 4.183 1.833 4.183 4.166Zm1.84-4c-.418-.083-.92.167-1.004.584-.083.416.168.916.586 1 1.088.25 1.84 1.25 1.84 2.416V17.5c0 .5.335.833.837.833s.837-.333.837-.833v-1.667c.084-1.916-1.171-3.583-3.096-4Zm-11.88-6c0 1.417 1.088 2.5 2.51 2.5 1.422 0 2.51-1.083 2.51-2.5 0-1.416-1.088-2.5-2.51-2.5-1.422 0-2.51 1.084-2.51 2.5Zm7.53-3.416c.167-.5.585-.75 1.004-.584 2.259.5 3.597 2.834 3.012 5.167-.335 1.5-1.506 2.583-3.012 3h-.168c-.418 0-.752-.25-.836-.667-.168-.416.167-.916.585-1 .92-.25 1.59-.916 1.841-1.833.335-1.417-.502-2.75-1.84-3.083-.419-.084-.67-.584-.586-1Z" fill="#fff"/></mask><g mask="url(#a)"><path fill="#000" d="M0 0h20v20H0z"/></g></svg>