<svg width="102" height="25" viewBox="0 0 102 25" fill="none" xmlns="http://www.w3.org/2000/svg"><path d="M4.582 14.581v5.393H.149V.602h8.39c4.434 0 6.967 3.09 6.967 6.859 0 3.979-2.745 7.12-7.336 7.12H4.582Zm0-9.948v5.969h3.483c1.9 0 3.008-1.204 3.008-2.984S9.965 4.686 7.906 4.686H4.582v-.053Zm13.193 15.393V5.471h3.958v1.99c1.002-1.31 2.427-2.2 4.274-2.2v3.98c-2.955 0-4.221 1.623-4.221 4.136v6.65h-4.011Zm24.856-7.225c0 4.188-3.377 7.54-7.863 7.54-4.486 0-7.863-3.3-7.863-7.54s3.377-7.592 7.863-7.592c4.486 0 7.863 3.351 7.863 7.592Zm-11.821 0c0 2.304 1.636 4.031 3.852 4.031 2.217 0 4.011-1.727 4.011-4.031 0-2.356-1.689-4.031-3.958-4.031-2.27 0-3.905 1.675-3.905 4.031Zm17.679-5.864c.739-.838 2.216-1.728 4.274-1.728 3.43 0 5.647 2.356 5.647 5.864v8.9h-3.958v-8.22c0-1.727-.95-2.931-2.691-2.931-1.953 0-3.22 1.204-3.22 3.246v7.906h-3.957V5.47h3.905v1.466Zm20.634 12.566C67.75 23.377 66.009 25 62.368 25h-1.425v-3.56h1.214c1.32 0 2.163-.733 2.691-1.885L59.413 5.419h4.538l3.008 8.953 2.955-8.953h4.117l-4.908 14.084Zm4.697.523v-4.084h4.116v4.084h-4.117Zm6.437-15.811V.602h3.958v3.613h-3.958Zm0 15.811V5.471h3.958v14.503h-3.958v.052ZM102 12.801c0 4.188-3.378 7.54-7.864 7.54-4.485 0-7.863-3.3-7.863-7.54s3.378-7.592 7.864-7.592c4.485 0 7.863 3.351 7.863 7.592Zm-11.821 0c0 2.304 1.635 4.031 3.852 4.031 2.216 0 4.01-1.727 4.01-4.031 0-2.356-1.688-4.031-3.957-4.031-2.27 0-3.905 1.675-3.905 4.031Z" fill="#000"/></svg>