<svg width="26" height="30" viewBox="0 0 26 30" fill="none" xmlns="http://www.w3.org/2000/svg"><path d="M12.77 0C5.753 0 0 5.707 0 12.67c0 3.194 1.161 6.074 3.114 8.325a4.937 4.937 0 0 1 1.53-.262 4.672 4.672 0 0 1 4.644 4.136 12.72 12.72 0 0 0 3.483.471c7.071 0 12.77-5.706 12.77-12.67C25.596 5.707 19.843 0 12.772 0Zm0 19.424c-3.746 0-6.754-2.984-6.754-6.701 0-3.718 3.008-6.702 6.755-6.702s6.755 2.984 6.755 6.702c0 3.664-3.008 6.701-6.755 6.701Z" fill="#1565C0"/><path d="M3.114 20.995A4.67 4.67 0 0 0 0 25.393C0 27.958 2.11 30 4.644 30c2.586 0 4.644-2.094 4.644-4.607v-.471c-2.428-.681-4.538-2.095-6.174-3.927Z" fill="url(#a)"/><defs><linearGradient id="a" x1="21.413" y1="5.006" x2="2.944" y2="27.837" gradientUnits="userSpaceOnUse"><stop stop-color="#2AFFA9"/><stop offset="1" stop-color="#03B8FD"/></linearGradient></defs></svg>