<svg width="20" height="21" viewBox="0 0 20 21" fill="none" xmlns="http://www.w3.org/2000/svg">
<g clip-path="url(#clip0_244_138)">
<path d="M15.834 7.16671L12.5007 10.5H15.0006C15.0006 13.2625 12.7632 15.5 10.0007 15.5C9.15482 15.5 8.36315 15.2875 7.66315 14.9209L6.44648 16.1375C7.47982 16.7834 8.69232 17.1667 10.0007 17.1667C13.684 17.1667 16.6673 14.1834 16.6673 10.5H19.1673L15.834 7.16671ZM5.00065 10.5C5.00065 7.73754 7.23815 5.50004 10.0007 5.50004C10.8465 5.50004 11.6382 5.71254 12.3382 6.07921L13.5548 4.86254C12.5215 4.21671 11.309 3.83337 10.0007 3.83337C6.31732 3.83337 3.33398 6.81671 3.33398 10.5H0.833984L4.16732 13.8334L7.50065 10.5H5.00065Z" fill="#757575"/>
</g>
<defs>
<clipPath id="clip0_244_138">
<rect width="20" height="20" fill="white" transform="translate(0 0.5)"/>
</clipPath>
</defs>
</svg>
