<svg width="20" height="20" viewBox="0 0 20 20" fill="none" xmlns="http://www.w3.org/2000/svg">
<g clip-path="url(#clip0_51_61)">
<path d="M16.1918 10.8126C16.2251 10.5459 16.2501 10.2751 16.2501 10.0001C16.2501 9.72508 16.2251 9.45425 16.1918 9.18758L17.9543 7.80841C18.1126 7.68341 18.1584 7.45841 18.0543 7.27508L16.3876 4.38758C16.2834 4.20841 16.0668 4.13341 15.8793 4.20842L13.8043 5.04591C13.3751 4.71675 12.9043 4.43758 12.3959 4.22508L12.0834 2.01675C12.0459 1.82091 11.8751 1.66675 11.6668 1.66675H8.33343C8.1251 1.66675 7.95427 1.82091 7.92093 2.01675L7.60843 4.22508C7.1001 4.43758 6.62927 4.71258 6.2001 5.04591L4.1251 4.20842C3.9376 4.13758 3.72093 4.20841 3.61677 4.38758L1.9501 7.27508C1.84593 7.45425 1.89177 7.67925 2.0501 7.80841L3.80843 9.18758C3.7751 9.45425 3.7501 9.72508 3.7501 10.0001C3.7501 10.2751 3.7751 10.5459 3.80843 10.8126L2.0501 12.1917C1.89177 12.3167 1.84593 12.5417 1.9501 12.7251L3.61677 15.6126C3.72093 15.7917 3.9376 15.8667 4.1251 15.7917L6.2001 14.9542C6.62927 15.2834 7.1001 15.5626 7.60843 15.7751L7.92093 17.9834C7.95427 18.1792 8.1251 18.3334 8.33343 18.3334H11.6668C11.8751 18.3334 12.0459 18.1792 12.0793 17.9834L12.3918 15.7751C12.9001 15.5626 13.3709 15.2876 13.8001 14.9542L15.8751 15.7917C16.0626 15.8626 16.2793 15.7917 16.3834 15.6126L18.0501 12.7251C18.1543 12.5459 18.1084 12.3209 17.9501 12.1917L16.1918 10.8126ZM10.0001 12.9167C8.3876 12.9167 7.08343 11.6126 7.08343 10.0001C7.08343 8.38758 8.3876 7.08342 10.0001 7.08342C11.6126 7.08342 12.9168 8.38758 12.9168 10.0001C12.9168 11.6126 11.6126 12.9167 10.0001 12.9167Z" fill="#000000"/>
</g>
<defs>
<clipPath id="clip0_51_61">
<rect width="20" height="20" fill="white"/>
</clipPath>
</defs>
</svg>
