<svg width="16" height="16" viewBox="0 0 16 16" fill="none" xmlns="http://www.w3.org/2000/svg">
<g clip-path="url(#clip0_123_5357)">
<path d="M0.666992 14H3.33366V5.99996H0.666992V14ZM15.3337 6.66663C15.3337 5.92996 14.737 5.33329 14.0003 5.33329H9.79033L10.427 2.28663C10.4403 2.21996 10.4503 2.14996 10.4503 2.07663C10.4503 1.79996 10.337 1.54996 10.157 1.36996L9.44699 0.666626L5.05699 5.05663C4.81699 5.29996 4.66699 5.63329 4.66699 5.99996V12.6666C4.66699 13.4033 5.26366 14 6.00033 14H12.0003C12.5537 14 13.027 13.6633 13.227 13.1866L15.237 8.48663C15.297 8.33329 15.3337 8.16996 15.3337 7.99996V6.72329L15.327 6.71663L15.3337 6.66663Z" fill="#000000"/>
</g>
<defs>
<clipPath id="clip0_123_5357">
<rect width="16" height="16" fill="white"/>
</clipPath>
</defs>
</svg>
