<svg width="64" height="64" viewBox="0 -4 28 28" fill="none" xmlns="http://www.w3.org/2000/svg"><g clip-path="url(#a)"><path d="M28 0H0v20h28V0Z" fill="url(#b)"/><path fill-rule="evenodd" clip-rule="evenodd" d="M0 0h28v1.333H0V0Zm0 2.667h28V4H0V2.667Zm0 2.666h28v1.334H0V5.333ZM0 8h28v1.333H0V8Zm0 2.667h28V12H0v-1.333Zm0 2.666h28v1.334H0v-1.334ZM0 16h28v1.333H0V16Zm0 2.667h28V20H0v-1.333Z" fill="url(#c)"/><path d="M12 0H0v9.333h12V0Z" fill="url(#d)"/><path fill-rule="evenodd" clip-rule="evenodd" d="M2 2.667a.667.667 0 1 1 0-1.334.667.667 0 0 1 0 1.334Zm2.667 0a.667.667 0 1 1 0-1.334.667.667 0 0 1 0 1.334Zm2.666 0a.667.667 0 1 1 0-1.334.667.667 0 0 1 0 1.334Zm2.667 0a.667.667 0 1 1 0-1.334.667.667 0 0 1 0 1.334ZM3.333 4a.667.667 0 1 1 0-1.333.667.667 0 0 1 0 1.333ZM6 4a.667.667 0 1 1 0-1.333A.667.667 0 0 1 6 4Zm2.667 0a.667.667 0 1 1 0-1.333.667.667 0 0 1 0 1.333ZM10 5.333A.667.667 0 1 1 10 4a.667.667 0 0 1 0 1.333Zm-2.667 0a.667.667 0 1 1 0-1.333.667.667 0 0 1 0 1.333Zm-2.666 0a.667.667 0 1 1 0-1.333.667.667 0 0 1 0 1.333ZM2 5.333A.667.667 0 1 1 2 4a.667.667 0 0 1 0 1.333Zm1.333 1.334a.667.667 0 1 1 0-1.334.667.667 0 0 1 0 1.334Zm2.667 0a.667.667 0 1 1 0-1.334.667.667 0 0 1 0 1.334Zm2.667 0a.667.667 0 1 1 0-1.334.667.667 0 0 1 0 1.334ZM10 8a.667.667 0 1 1 0-1.333A.667.667 0 0 1 10 8ZM7.333 8a.667.667 0 1 1 0-1.333.667.667 0 0 1 0 1.333ZM4.667 8a.667.667 0 1 1 0-1.333.667.667 0 0 1 0 1.333ZM2 8a.667.667 0 1 1 0-1.333A.667.667 0 0 1 2 8Z" fill="url(#e)"/></g><defs><linearGradient id="b" x1="14" y1="0" x2="14" y2="20" gradientUnits="userSpaceOnUse"><stop stop-color="#fff"/><stop offset="1" stop-color="#F0F0F0"/></linearGradient><linearGradient id="c" x1="14" y1="0" x2="14" y2="20" gradientUnits="userSpaceOnUse"><stop stop-color="#D02F44"/><stop offset="1" stop-color="#B12537"/></linearGradient><linearGradient id="d" x1="6" y1="0" x2="6" y2="9.333" gradientUnits="userSpaceOnUse"><stop stop-color="#46467F"/><stop offset="1" stop-color="#3C3C6D"/></linearGradient><linearGradient id="e" x1="6" y1="1.333" x2="6" y2="8" gradientUnits="userSpaceOnUse"><stop stop-color="#fff"/><stop offset="1" stop-color="#F0F0F0"/></linearGradient><clipPath id="a"><rect width="28" height="20" rx="2" fill="#fff"/></clipPath></defs></svg>