<svg xmlns="http://www.w3.org/2000/svg" viewBox="0 0 496 496" xml:space="preserve" width="64" height="64"><path style="fill:#d32030" d="M0 304.8v64.8c0 27.2 21.6 48.8 48 48.8h400c26.4 0 48-21.6 48-48.8v-64.8H0z"/><path style="fill:#c11025" d="M448 418.4c26.4 0 48-21.6 48-48.8v-64.8H315.2L448 418.4z"/><path style="fill:#d32030" d="M448 77.6H48c-26.4 0-48 21.6-48 48.8v64.8h496v-64.8c0-27.2-21.6-48.8-48-48.8z"/><path style="fill:#c11025" d="M448 77.6H48l132.8 113.6H496v-64.8c0-27.2-21.6-48.8-48-48.8z"/><path style="fill:#a5001c" d="M448 77.6H48l370.4 113.6H496v-64.8c0-27.2-21.6-48.8-48-48.8z"/><path style="fill:#ffd034" d="M0 140.8v214.4h496V140.8z"/><path style="fill:#ffbc00" d="m180 189.6 136 116.8 57.6 48.8H496V140.8H122.4z"/><path style="fill:#fa0" d="m255.2 140.8 159.2 48.8 81.6 24.8v-73.6z"/><path style="fill:#a5001c" d="M496 369.6c0 27.2-21.6 48.8-48 48.8H48c-26.4 0-48-21.6-48-48.8m69.6-124.8v33.6c0 16.8 13.6 30.4 30.4 30.4s30.4-13.6 30.4-30.4v-33.6H69.6zm68 4.8h9.6V296h-9.6zm13.6 52c-.8-.8-1.6-.8-3.2-.8-.8 0-2.4 0-3.2.8s-1.6.8-3.2.8c-.8 0-2.4 0-3.2-.8-.8 0-1.6-.8-3.2-.8s-2.4 0-3.2.8-1.6.8-3.2.8v1.6c.8 0 2.4 0 3.2-.8.8 0 1.6-.8 3.2-.8s2.4 0 3.2.8 1.6.8 3.2.8c.8 0 2.4 0 3.2-.8.8 0 1.6-.8 3.2-.8.8 0 2.4 0 3.2.8s2.4.8 3.2.8v-1.6c-.8 0-2.4 0-3.2-.8zm-2.4 3.2c-.8 0-2.4 0-3.2.8s-1.6.8-3.2.8c-.8 0-2.4 0-3.2-.8-.8 0-1.6-.8-3.2-.8s-2.4 0-3.2.8-1.6.8-3.2.8v1.6c.8 0 2.4 0 3.2-.8.8 0 1.6-.8 3.2-.8s2.4 0 3.2.8 1.6.8 3.2.8c.8 0 2.4 0 3.2-.8.8 0 1.6-.8 3.2-.8.8 0 2.4 0 3.2.8s1.6.8 3.2.8v-1.6c-.8 0-2.4 0-3.2-.8-1.6-.8-2.4-.8-3.2-.8z"/><path style="fill:#a5001c" d="M148.8 308c-.8 0-2.4 0-3.2.8s-1.6.8-3.2.8c-.8 0-2.4 0-3.2-.8-.8 0-1.6-.8-3.2-.8s-2.4 0-3.2.8-1.6.8-3.2.8v1.6c.8 0 2.4 0 3.2-.8.8 0 1.6-.8 3.2-.8s2.4 0 3.2.8 1.6.8 3.2.8c.8 0 2.4 0 3.2-.8.8 0 1.6-.8 3.2-.8.8 0 2.4 0 3.2.8s1.6.8 3.2.8v-1.6c-.8 0-2.4 0-3.2-.8-1.6 0-2.4-.8-3.2-.8zm0-11.2c0 .8-.8 1.6-1.6 1.6h-10.4c-.8 0-1.6-.8-1.6-1.6s.8-1.6 1.6-1.6h10.4c.8 0 1.6.8 1.6 1.6zm0-48c0 .8-.8 1.6-1.6 1.6h-10.4c-.8 0-1.6-.8-1.6-1.6s.8-1.6 1.6-1.6h10.4c.8.8 1.6.8 1.6 1.6z"/><path style="fill:#d32030" d="M53.6 249.6h9.6V296h-9.6zm13.6 52c-.8-.8-1.6-.8-3.2-.8-.8 0-2.4 0-3.2.8-.8.8-1.6.8-3.2.8-.8 0-2.4 0-3.2-.8-.8 0-1.6-.8-3.2-.8-.8 0-2.4 0-3.2.8s-1.6.8-3.2.8v1.6c.8 0 2.4 0 3.2-.8.8 0 1.6-.8 3.2-.8.8 0 2.4 0 3.2.8 1.6.8 2.4.8 4 .8.8 0 2.4 0 3.2-.8.8 0 1.6-.8 3.2-.8.8 0 2.4 0 3.2.8 0 .8.8.8 2.4.8v-1.6c-1.6 0-2.4 0-3.2-.8zm-3.2 3.2c-.8 0-2.4 0-3.2.8-.8.8-1.6.8-3.2.8-.8 0-2.4 0-3.2-.8-.8 0-1.6-.8-3.2-.8-.8 0-2.4 0-3.2.8s-1.6.8-3.2.8v1.6c.8 0 2.4 0 3.2-.8.8 0 1.6-.8 3.2-.8.8 0 2.4 0 3.2.8s1.6.8 3.2.8c.8 0 2.4 0 3.2-.8.8 0 1.6-.8 3.2-.8.8 0 2.4 0 3.2.8.8.8 1.6.8 3.2.8v-1.6c-.8 0-2.4 0-3.2-.8s-1.6-.8-3.2-.8z"/><path style="fill:#d32030" d="M64 308c-.8 0-2.4 0-3.2.8-.8.8-1.6.8-3.2.8-.8 0-2.4 0-3.2-.8-.8 0-1.6-.8-3.2-.8-.8 0-2.4 0-3.2.8s-1.6.8-3.2.8v1.6c.8 0 2.4 0 3.2-.8.8 0 1.6-.8 3.2-.8.8 0 2.4 0 3.2.8s1.6.8 3.2.8c.8 0 2.4 0 3.2-.8.8 0 1.6-.8 3.2-.8.8 0 2.4 0 3.2.8.8.8 1.6.8 3.2.8v-1.6c-.8 0-2.4 0-3.2-.8-.8 0-1.6-.8-3.2-.8zm.8-11.2c0 .8-.8 1.6-1.6 1.6H52.8c-.8 0-1.6-.8-1.6-1.6s.8-1.6 1.6-1.6h10.4c.8 0 1.6.8 1.6 1.6zm0-48c0 .8-.8 1.6-1.6 1.6H52.8c-.8 0-1.6-.8-1.6-1.6.8-.8 1.6-.8 1.6-.8h10.4c.8 0 1.6 0 1.6.8z"/><path style="fill:#a5001c" d="M124 238.4c0-1.6-.8-2.4-2.4-2.4 0-1.6-9.6-2.4-21.6-2.4s-21.6.8-21.6 2.4c-.8 0-1.6 1.6-1.6 2.4 0 .8.8 2.4 2.4 2.4 0 1.6 9.6 2.4 21.6 2.4s21.6-.8 21.6-2.4c.8 0 1.6-.8 1.6-2.4z"/><path style="fill:#a5001c" d="M137.6 217.6s-.8 0 0 0l.8-.8c.8-1.6 1.6-3.2 1.6-4.8 0-3.2-2.4-6.4-4.8-8l.8.8c-2.4-1.6-6.4-3.2-10.4-3.2h-4s-.8 0-.8.8h-.8v.8l-2.4-2.4c-1.6-1.6-4.8-3.2-8-3.2-2.4 0-4.8.8-7.2 1.6v1.6c1.6-.8 4-1.6 6.4-1.6 4.8 0 9.6 2.4 9.6 6.4v.8c0 1.6-.8 2.4-1.6 3.2-2.4 0-4-.8-5.6-1.6-2.4-.8-5.6-1.6-8.8-1.6v-7.2c0-.8-1.6-1.6-2.4-1.6 1.6 0 2.4-.8 3.2-1.6v-1.6c0-1.6-.8-2.4-2.4-3.2v-2.4h1.6v-1.6h-1.6v-1.6h-1.6v1.6h-1.6v1.6h1.6v2.4c-1.6 0-2.4 1.6-2.4 3.2v1.6c.8.8 1.6 1.6 2.4 1.6-.8 0-1.6.8-1.6.8v-.8c0-.8 0-.8-.8-.8s-.8 0-.8.8 0 .8.8.8h.8l-.8.8c-1.6-.8-4-1.6-7.2-1.6s-6.4.8-8 3.2c-.8.8-2.4 1.6-2.4 2.4v-.8h-.8s0-.8-.8-.8h-4c-4 0-8 1.6-10.4 3.2l.8-.8c-3.2 1.6-4.8 4.8-4.8 8 0 1.6.8 4 1.6 4.8l.8.8c-.8 0-1.6.8-1.6 2.4 0 0 1.6 0 2.4.8s1.6 2.4 1.6 2.4v1.6c.8.8.8.8 1.6 0 .8.8 1.6 2.4 3.2 3.2.8.8 2.4.8 3.2.8h.8-.8c-.8 0-.8.8-.8.8 0 .8.8.8.8.8s.8 0 1.6.8l.8.8 1.6.8v1.6c6.4-1.6 14.4-3.2 24-3.2s18.4 1.6 24 3.2c-.8 0-.8-.8 0-1.6l1.6-.8-.8-.8c.8-.8 1.6-.8 1.6-.8.8 0 .8 0 .8-.8s0-.8-.8-.8h-1.6l.8.8c.8 0 2.4 0 3.2-.8 1.6-.8 2.4-2.4 3.2-3.2h1.6c.8-.8.8-1.6 0-1.6 0 0 .8-1.6 1.6-2.4.8-.8 2.4-.8 2.4-.8 2.4-1.6.8-3.2 0-3.2zM78.4 204c-.8 0-.8 0-.8.8s0 .8.8.8v.8s-.8 0-.8.8 0 .8.8.8v1.6H76c-2.4 0-4.8.8-8 1.6-1.6.8-2.4 1.6-4 1.6-.8-.8-.8-1.6-.8-3.2 0-.8 0-1.6.8-2.4 1.6-3.2 6.4-4.8 12-4.8h3.2c0 .8 0 .8-.8 1.6zm19.2-1.6s-.8.8 0 0v3.2c-4 0-7.2.8-9.6 1.6-1.6.8-3.2.8-5.6 1.6-.8-.8-1.6-2.4-1.6-3.2v-.8c0-3.2 4-6.4 9.6-6.4 2.4 0 4.8.8 6.4 1.6v-.8c.8.8.8 1.6.8 3.2-.8 0 0 0 0 0zm40.8 4.8c0-.8-.8-1.6-1.6-2.4.8.8.8 1.6 1.6 2.4zm-2.4 5.6c-.8-.8-2.4-1.6-4-2.4-3.2-1.6-6.4-1.6-8-1.6h-1.6s0-.8-.8-.8v-.8c.8 0 .8 0 .8-.8 0 0 0-.8-.8-.8v-.8c.8 0 .8 0 .8-.8s0-.8-.8-.8c0 0 0-.8-.8-.8h3.2c5.6 0 10.4 2.4 12 4.8 0 .8.8 1.6.8 2.4.8 1.6 0 2.4-.8 3.2z"/><circle style="fill:#a5001c" cx="140" cy="217.6" r=".8"/><circle style="fill:#a5001c" cx="140.8" cy="215.2" r=".8"/><circle style="fill:#a5001c" cx="141.6" cy="213.6" r=".8"/><circle style="fill:#a5001c" cx="141.6" cy="210.4" r=".8"/><circle style="fill:#a5001c" cx="140.8" cy="208" r=".8"/><path style="fill:#a5001c" d="M140 206.4c.8 0 .8 0 .8-.8s0-.8-.8-.8-.8 0-.8.8 0 .8.8.8z"/><circle style="fill:#a5001c" cx="137.6" cy="204" r=".8"/><circle style="fill:#a5001c" cx="136" cy="202.4" r=".8"/><circle style="fill:#a5001c" cx="133.6" cy="201.6" r=".8"/><circle style="fill:#a5001c" cx="131.2" cy="200" r=".8"/><circle style="fill:#a5001c" cx="128" cy="200" r=".8"/><path style="fill:#a5001c" d="M125.6 200.8c.8 0 .8 0 .8-.8s-.8-.8-.8-.8c-.8 0-.8 0-.8.8 0 0 0 .8.8.8z"/><circle style="fill:#a5001c" cx="123.2" cy="200" r=".8"/><circle style="fill:#a5001c" cx="120.8" cy="200" r=".8"/><circle style="fill:#a5001c" cx="118.4" cy="198.4" r=".8"/><circle style="fill:#a5001c" cx="116" cy="196.8" r=".8"/><circle style="fill:#a5001c" cx="113.6" cy="196" r=".8"/><circle style="fill:#a5001c" cx="111.2" cy="196" r=".8"/><circle style="fill:#a5001c" cx="108.8" cy="196" r=".8"/><circle style="fill:#a5001c" cx="105.6" cy="196" r=".8"/><circle style="fill:#a5001c" cx="103.2" cy="196.8" r=".8"/><circle style="fill:#a5001c" cx="60.8" cy="217.6" r=".8"/><circle style="fill:#a5001c" cx="60" cy="215.2" r=".8"/><circle style="fill:#a5001c" cx="59.2" cy="213.6" r=".8"/><circle style="fill:#a5001c" cx="59.2" cy="210.4" r=".8"/><circle style="fill:#a5001c" cx="60" cy="208" r=".8"/><circle style="fill:#a5001c" cx="60.8" cy="205.6" r=".8"/><circle style="fill:#a5001c" cx="62.4" cy="204" r=".8"/><circle style="fill:#a5001c" cx="64.8" cy="202.4" r=".8"/><circle style="fill:#a5001c" cx="67.2" cy="201.6" r=".8"/><circle style="fill:#a5001c" cx="69.6" cy="200" r=".8"/><circle style="fill:#a5001c" cx="72.8" cy="200" r=".8"/><circle style="fill:#a5001c" cx="75.2" cy="200" r=".8"/><circle style="fill:#a5001c" cx="77.6" cy="200" r=".8"/><circle style="fill:#a5001c" cx="80" cy="200" r=".8"/><circle style="fill:#a5001c" cx="82.4" cy="198.4" r=".8"/><circle style="fill:#a5001c" cx="84.8" cy="196.8" r=".8"/><circle style="fill:#a5001c" cx="87.2" cy="196" r=".8"/><circle style="fill:#a5001c" cx="89.6" cy="196" r=".8"/><circle style="fill:#a5001c" cx="92" cy="196" r=".8"/><circle style="fill:#a5001c" cx="95.2" cy="196" r=".8"/><path style="fill:#d32030" d="M64 247.2c0-.8 0-.8 0 0-.8-.8-3.2-.8-5.6-.8-3.2 0-5.6 0-5.6.8v.8s0 .8.8.8c0 0 2.4.8 5.6.8s4-1.6 4.8-2.4zm3.2-5.6c.8-.8.8-.8.8-1.6s-.8-1.6-1.6-1.6c-.8-.8-1.6-.8-2.4-.8h-.8s0-.8-.8-.8c-.8-.8-.8-.8-2.4-.8-.8 0-1.6 0-1.6.8.8 0 .8-.8 1.6-.8 1.6 0 2.4.8 2.4 1.6v.8h-1.6c-.8 0-1.6 0-2.4-.8V236s0-.8-.8-.8c0 0 .8 0 .8-.8 0 0 0-.8-.8-.8v-.8h.8v-1.6.8h-.8v.8h.8v.8s-.8 0-.8.8c0 0 0 .8.8.8h-.8c-.8 0-.8-.8-1.6-.8s-1.6 0-2.4.8c0 0-.8 0-.8.8H52c-.8 0-1.6 0-2.4.8-.8.8-1.6.8-1.6 1.6s0 .8.8 1.6c0 0-.8 0-.8.8h.8l.8.8v.8s0 .8.8.8h.8v.8c1.6-.8 3.2-.8 5.6-.8 2.4 0 4.8 0 5.6.8v-.8h.8l.8-.8v-.8c2.4 1.6 3.2.8 3.2 0 0 .8.8.8 0 0 .8.8 0 0 0 0zm-14.4-3.2s0 .8 0 0c0 .8 0 .8 0 0 0 .8 0 .8 0 0v.8H52c-.8 0-1.6 0-1.6.8 0 0-.8 0-.8.8v-1.6c0-.8 1.6-1.6 3.2-1.6v.8zm4.8 0c-.8.8-1.6.8-2.4.8h-1.6v-.8c0-.8.8-1.6 2.4-1.6l1.6 1.6c0-.8 0-.8 0 0 0-.8 0-.8 0 0zm9.6.8zm0 1.6s-.8 0-.8-.8h-3.2.8c1.6 0 2.4.8 3.2 1.6v-.8c0-.8 0 0 0 0z"/><path style="fill:#a5001c" d="M68 239.2s-.8 0 0 0c-.8 0 0 0 0 0zm80 8c0-.8 0-.8 0 0-.8-.8-3.2-.8-5.6-.8-3.2 0-5.6 0-5.6.8v.8s0 .8.8.8c0 0 2.4.8 5.6.8 2.4-1.6 4.8-1.6 4.8-2.4zm3.2-5.6c.8 0 .8-.8.8-1.6s-.8-1.6-1.6-1.6c-.8-.8-1.6-.8-2.4-.8h-.8s0-.8-.8-.8c-.8-.8-.8-.8-2.4-.8-.8 0-1.6 0-1.6.8.8 0 .8-.8 1.6-.8 1.6 0 2.4.8 2.4 1.6v.8h-1.6c-.8 0-1.6 0-2.4-.8V236s0-.8-.8-.8c0 0 .8 0 .8-.8 0 0 0-.8-.8-.8v-.8h.8v-.8h-.8v-.8h-.8v.8h-.8v.8h.8v.8s-.8 0-.8.8c0 0 0 .8.8.8h-.8c-.8 0-.8-.8-1.6-.8s-1.6 0-2.4.8c0 0-.8 0-.8.8h-.8c-.8 0-1.6 0-2.4.8-.8.8-1.6.8-1.6 1.6s0 .8.8 1.6c0 0-.8 0-.8.8h.8l.8.8v.8s0 .8.8.8h.8v.8c1.6-.8 3.2-.8 5.6-.8 2.4 0 4.8 0 5.6.8v-.8h.8l.8-.8v-.8c4.8 1.6 4.8.8 4.8 0 0 .8.8.8 0 0 .8.8.8 0 0 0zm-13.6-3.2c-.8 0-.8 0 0 0-.8 0-.8.8 0 0-.8.8-.8.8 0 0-.8.8-.8.8 0 0v.8h-.8c-.8 0-1.6 0-1.6.8 0 0-.8 0-.8.8v-1.6c0-.8 1.6-1.6 3.2-1.6-.8.8-.8.8 0 .8zm4 0c-.8.8-1.6.8-2.4.8h-1.6v-.8c0-.8.8-1.6 2.4-1.6.8.8 1.6.8 1.6 1.6 0-.8 0-.8 0 0 0-.8 0-.8 0 0zm10.4.8c-.8 0-.8 0 0 0-.8 0-.8 0 0 0zm-.8 1.6s-.8 0-.8-.8c-.8 0-1.6-.8-1.6-.8h-.8.8c1.6 0 2.4.8 3.2 1.6-.8-1.6-.8-.8-.8 0 0-.8 0 0 0 0z"/><path style="fill:#d32030" d="M100 231.2v-46.4h-.8v1.6h-1.6v1.6h1.6v2.4c-1.6 0-2.4 1.6-2.4 3.2v1.6c.8.8 1.6 1.6 2.4 1.6-.8 0-1.6.8-1.6.8v-.8c0-.8 0-.8-.8-.8s-.8 0-.8.8 0 .8.8.8h.8l-.8.8c-1.6-.8-4-1.6-7.2-1.6s-6.4.8-8 3.2c-.8.8-2.4 1.6-2.4 2.4v-.8h-.8s0-.8-.8-.8h-4c-4 0-8 1.6-10.4 3.2l.8-.8c-3.2 1.6-4.8 4.8-4.8 8 0 1.6.8 4 1.6 4.8l.8.8c-.8 0-1.6.8-1.6 2.4 0 0 1.6 0 2.4.8s1.6 2.4 1.6 2.4v1.6c.8.8.8.8 1.6 0 .8.8 1.6 2.4 3.2 3.2.8.8 2.4.8 3.2.8h.8-.8c-.8 0-.8.8-.8.8 0 .8.8.8.8.8s.8 0 1.6.8l.8 1.6 1.6.8v1.6c6.4-2.4 15.2-3.2 24-3.2zm-19.2-26.4c0-3.2 4-6.4 9.6-6.4 2.4 0 4.8.8 6.4 1.6v-.8 6.4c-4 0-7.2.8-9.6 1.6-1.6.8-3.2.8-5.6 1.6 0-.8-.8-2.4-.8-4zm-4.8 4c-2.4 0-4.8.8-8 1.6-1.6.8-2.4 1.6-4 1.6-.8-.8-.8-1.6-.8-3.2 0-.8 0-1.6.8-2.4 1.6-3.2 6.4-4.8 12-4.8h3.2s0 .8-.8.8-.8 0-.8.8 0 .8.8.8v.8s-.8 0-.8.8 0 .8.8.8v1.6c-.8.8-1.6.8-2.4.8zm24 24.8c-12.8 0-22.4.8-22.4 2.4-.8 0-1.6 1.6-1.6 2.4 0 .8.8 2.4 2.4 2.4 0 1.6 9.6 2.4 21.6 2.4v-9.6zm0 11.2H69.6v33.6c0 16.8 13.6 30.4 30.4 30.4v-64z"/></svg>